<mxfile host="app.diagrams.net" agent="Mozilla/5.0 (Windows NT 10.0; Win64; x64) AppleWebKit/537.36 (KHTML, like Gecko) Chrome/133.0.0.0 Safari/537.36 OPR/118.0.0.0" version="26.2.9">
  <diagram name="1 oldal" id="uXYVLRbJiJII2hEOwwkT">
    <mxGraphModel grid="1" page="1" gridSize="10" guides="1" tooltips="1" connect="1" arrows="1" fold="1" pageScale="1" pageWidth="827" pageHeight="1169" math="0" shadow="0">
      <root>
        <mxCell id="0" />
        <mxCell id="1" parent="0" />
        <mxCell id="ZL4C4n28PFtst3DvSVL6-81" style="edgeStyle=orthogonalEdgeStyle;rounded=0;orthogonalLoop=1;jettySize=auto;html=1;exitX=1;exitY=0.25;exitDx=0;exitDy=0;entryX=0;entryY=0.5;entryDx=0;entryDy=0;" edge="1" parent="1" source="rXqy0nmyM1romMUP6jEx-1" target="ZL4C4n28PFtst3DvSVL6-22">
          <mxGeometry relative="1" as="geometry" />
        </mxCell>
        <mxCell id="ZL4C4n28PFtst3DvSVL6-82" style="edgeStyle=orthogonalEdgeStyle;rounded=0;orthogonalLoop=1;jettySize=auto;html=1;exitX=1;exitY=0.25;exitDx=0;exitDy=0;" edge="1" parent="1" source="rXqy0nmyM1romMUP6jEx-1">
          <mxGeometry relative="1" as="geometry">
            <mxPoint x="430" y="180" as="targetPoint" />
            <Array as="points">
              <mxPoint x="320" y="410" />
              <mxPoint x="320" y="180" />
            </Array>
          </mxGeometry>
        </mxCell>
        <mxCell id="ZL4C4n28PFtst3DvSVL6-85" style="edgeStyle=orthogonalEdgeStyle;rounded=0;orthogonalLoop=1;jettySize=auto;html=1;exitX=1;exitY=0.75;exitDx=0;exitDy=0;entryX=0;entryY=0.75;entryDx=0;entryDy=0;" edge="1" parent="1" source="rXqy0nmyM1romMUP6jEx-1" target="ZL4C4n28PFtst3DvSVL6-59">
          <mxGeometry relative="1" as="geometry" />
        </mxCell>
        <mxCell id="ZL4C4n28PFtst3DvSVL6-88" style="edgeStyle=orthogonalEdgeStyle;rounded=0;orthogonalLoop=1;jettySize=auto;html=1;exitX=1;exitY=0.75;exitDx=0;exitDy=0;" edge="1" parent="1" source="rXqy0nmyM1romMUP6jEx-1">
          <mxGeometry relative="1" as="geometry">
            <mxPoint x="430" y="430.52631578947376" as="targetPoint" />
          </mxGeometry>
        </mxCell>
        <mxCell id="rXqy0nmyM1romMUP6jEx-1" value="Paciens" style="whiteSpace=wrap;html=1;align=center;" vertex="1" parent="1">
          <mxGeometry x="120" y="400" width="80" height="40" as="geometry" />
        </mxCell>
        <mxCell id="rXqy0nmyM1romMUP6jEx-2" value="PaciensID" style="ellipse;whiteSpace=wrap;html=1;align=center;fontStyle=4;" vertex="1" parent="1">
          <mxGeometry x="180" y="320" width="80" height="40" as="geometry" />
        </mxCell>
        <mxCell id="rXqy0nmyM1romMUP6jEx-4" value="" style="endArrow=none;html=1;rounded=0;entryX=0.5;entryY=0;entryDx=0;entryDy=0;exitX=0.5;exitY=1;exitDx=0;exitDy=0;" edge="1" parent="1" source="rXqy0nmyM1romMUP6jEx-2" target="rXqy0nmyM1romMUP6jEx-1">
          <mxGeometry relative="1" as="geometry">
            <mxPoint x="40" y="650" as="sourcePoint" />
            <mxPoint x="200" y="650" as="targetPoint" />
          </mxGeometry>
        </mxCell>
        <mxCell id="rXqy0nmyM1romMUP6jEx-6" value="Telszamok" style="ellipse;shape=doubleEllipse;margin=3;whiteSpace=wrap;html=1;align=center;" vertex="1" parent="1">
          <mxGeometry x="-20" y="440" width="80" height="40" as="geometry" />
        </mxCell>
        <mxCell id="rXqy0nmyM1romMUP6jEx-7" value="Nev" style="ellipse;whiteSpace=wrap;html=1;align=center;" vertex="1" parent="1">
          <mxGeometry x="60" y="480" width="80" height="40" as="geometry" />
        </mxCell>
        <mxCell id="rXqy0nmyM1romMUP6jEx-8" value="TAJszam" style="ellipse;whiteSpace=wrap;html=1;align=center;" vertex="1" parent="1">
          <mxGeometry x="60" y="320" width="80" height="40" as="geometry" />
        </mxCell>
        <mxCell id="rXqy0nmyM1romMUP6jEx-9" value="Lakcim" style="ellipse;whiteSpace=wrap;html=1;align=center;dashed=1;" vertex="1" parent="1">
          <mxGeometry x="-20" y="360" width="80" height="40" as="geometry" />
        </mxCell>
        <mxCell id="rXqy0nmyM1romMUP6jEx-10" value="SzulDatum" style="ellipse;whiteSpace=wrap;html=1;align=center;" vertex="1" parent="1">
          <mxGeometry x="180" y="480" width="80" height="40" as="geometry" />
        </mxCell>
        <mxCell id="rXqy0nmyM1romMUP6jEx-11" value="Orvos" style="whiteSpace=wrap;html=1;align=center;" vertex="1" parent="1">
          <mxGeometry x="720" y="400" width="80" height="40" as="geometry" />
        </mxCell>
        <mxCell id="rXqy0nmyM1romMUP6jEx-12" value="" style="endArrow=none;html=1;rounded=0;exitX=0.5;exitY=0;exitDx=0;exitDy=0;entryX=0.5;entryY=1;entryDx=0;entryDy=0;" edge="1" parent="1" source="rXqy0nmyM1romMUP6jEx-10" target="rXqy0nmyM1romMUP6jEx-1">
          <mxGeometry relative="1" as="geometry">
            <mxPoint x="280" y="450" as="sourcePoint" />
            <mxPoint x="440" y="450" as="targetPoint" />
          </mxGeometry>
        </mxCell>
        <mxCell id="rXqy0nmyM1romMUP6jEx-13" value="" style="endArrow=none;html=1;rounded=0;exitX=0.5;exitY=0;exitDx=0;exitDy=0;entryX=0.5;entryY=1;entryDx=0;entryDy=0;" edge="1" parent="1" source="rXqy0nmyM1romMUP6jEx-7" target="rXqy0nmyM1romMUP6jEx-1">
          <mxGeometry relative="1" as="geometry">
            <mxPoint x="220" y="470" as="sourcePoint" />
            <mxPoint x="170" y="450" as="targetPoint" />
          </mxGeometry>
        </mxCell>
        <mxCell id="rXqy0nmyM1romMUP6jEx-14" value="" style="endArrow=none;html=1;rounded=0;exitX=0.5;exitY=1;exitDx=0;exitDy=0;entryX=0.5;entryY=0;entryDx=0;entryDy=0;" edge="1" parent="1" source="rXqy0nmyM1romMUP6jEx-8" target="rXqy0nmyM1romMUP6jEx-1">
          <mxGeometry relative="1" as="geometry">
            <mxPoint x="230" y="480" as="sourcePoint" />
            <mxPoint x="180" y="460" as="targetPoint" />
          </mxGeometry>
        </mxCell>
        <mxCell id="rXqy0nmyM1romMUP6jEx-15" value="" style="endArrow=none;html=1;rounded=0;exitX=1;exitY=0.5;exitDx=0;exitDy=0;entryX=0;entryY=0.5;entryDx=0;entryDy=0;" edge="1" parent="1" source="rXqy0nmyM1romMUP6jEx-6" target="rXqy0nmyM1romMUP6jEx-1">
          <mxGeometry relative="1" as="geometry">
            <mxPoint x="240" y="490" as="sourcePoint" />
            <mxPoint x="190" y="470" as="targetPoint" />
          </mxGeometry>
        </mxCell>
        <mxCell id="rXqy0nmyM1romMUP6jEx-16" value="" style="endArrow=none;html=1;rounded=0;exitX=0;exitY=0.5;exitDx=0;exitDy=0;entryX=1;entryY=0.5;entryDx=0;entryDy=0;" edge="1" parent="1" source="rXqy0nmyM1romMUP6jEx-1" target="rXqy0nmyM1romMUP6jEx-9">
          <mxGeometry relative="1" as="geometry">
            <mxPoint x="250" y="500" as="sourcePoint" />
            <mxPoint x="200" y="480" as="targetPoint" />
          </mxGeometry>
        </mxCell>
        <mxCell id="rXqy0nmyM1romMUP6jEx-18" value="IdopontID" style="ellipse;whiteSpace=wrap;html=1;align=center;fontStyle=4;" vertex="1" parent="1">
          <mxGeometry x="340" y="80" width="80" height="40" as="geometry" />
        </mxCell>
        <mxCell id="ZL4C4n28PFtst3DvSVL6-3" value="&lt;span style=&quot;border-bottom: 1px dotted&quot;&gt;OrvosFK&lt;/span&gt;" style="ellipse;whiteSpace=wrap;html=1;align=center;" vertex="1" parent="1">
          <mxGeometry x="540" y="80" width="80" height="40" as="geometry" />
        </mxCell>
        <mxCell id="ZL4C4n28PFtst3DvSVL6-4" value="&lt;span style=&quot;border-bottom: 1px dotted&quot;&gt;PaciensFK&lt;/span&gt;" style="ellipse;whiteSpace=wrap;html=1;align=center;" vertex="1" parent="1">
          <mxGeometry x="440" y="80" width="80" height="40" as="geometry" />
        </mxCell>
        <mxCell id="ZL4C4n28PFtst3DvSVL6-5" value="Datum" style="ellipse;whiteSpace=wrap;html=1;align=center;" vertex="1" parent="1">
          <mxGeometry x="340" y="240" width="80" height="40" as="geometry" />
        </mxCell>
        <mxCell id="ZL4C4n28PFtst3DvSVL6-7" value="Allapot" style="ellipse;whiteSpace=wrap;html=1;align=center;" vertex="1" parent="1">
          <mxGeometry x="540" y="240" width="80" height="40" as="geometry" />
        </mxCell>
        <mxCell id="ZL4C4n28PFtst3DvSVL6-8" value="" style="endArrow=none;html=1;rounded=0;exitX=0.5;exitY=1;exitDx=0;exitDy=0;" edge="1" parent="1" source="rXqy0nmyM1romMUP6jEx-18">
          <mxGeometry relative="1" as="geometry">
            <mxPoint x="320" y="200" as="sourcePoint" />
            <mxPoint x="481" y="160" as="targetPoint" />
          </mxGeometry>
        </mxCell>
        <mxCell id="ZL4C4n28PFtst3DvSVL6-9" value="" style="endArrow=none;html=1;rounded=0;entryX=0.5;entryY=1;entryDx=0;entryDy=0;exitX=0.5;exitY=0;exitDx=0;exitDy=0;" edge="1" parent="1" source="ZL4C4n28PFtst3DvSVL6-22" target="ZL4C4n28PFtst3DvSVL6-3">
          <mxGeometry relative="1" as="geometry">
            <mxPoint x="481" y="145" as="sourcePoint" />
            <mxPoint x="491" y="155" as="targetPoint" />
          </mxGeometry>
        </mxCell>
        <mxCell id="ZL4C4n28PFtst3DvSVL6-10" value="" style="endArrow=none;html=1;rounded=0;entryX=0.5;entryY=0;entryDx=0;entryDy=0;exitX=0.5;exitY=1;exitDx=0;exitDy=0;" edge="1" parent="1" source="ZL4C4n28PFtst3DvSVL6-4" target="ZL4C4n28PFtst3DvSVL6-22">
          <mxGeometry relative="1" as="geometry">
            <mxPoint x="394" y="140" as="sourcePoint" />
            <mxPoint x="481" y="145" as="targetPoint" />
          </mxGeometry>
        </mxCell>
        <mxCell id="ZL4C4n28PFtst3DvSVL6-11" value="" style="endArrow=none;html=1;rounded=0;entryX=0.5;entryY=0;entryDx=0;entryDy=0;" edge="1" parent="1" target="ZL4C4n28PFtst3DvSVL6-7">
          <mxGeometry relative="1" as="geometry">
            <mxPoint x="480" y="200" as="sourcePoint" />
            <mxPoint x="511" y="175" as="targetPoint" />
          </mxGeometry>
        </mxCell>
        <mxCell id="ZL4C4n28PFtst3DvSVL6-12" value="" style="endArrow=none;html=1;rounded=0;entryX=0.5;entryY=0;entryDx=0;entryDy=0;exitX=0.488;exitY=1;exitDx=0;exitDy=0;exitPerimeter=0;" edge="1" parent="1" source="ZL4C4n28PFtst3DvSVL6-22">
          <mxGeometry relative="1" as="geometry">
            <mxPoint x="480" y="200" as="sourcePoint" />
            <mxPoint x="480" y="240" as="targetPoint" />
          </mxGeometry>
        </mxCell>
        <mxCell id="ZL4C4n28PFtst3DvSVL6-14" value="Idopont" style="ellipse;whiteSpace=wrap;html=1;align=center;" vertex="1" parent="1">
          <mxGeometry x="440" y="240" width="80" height="40" as="geometry" />
        </mxCell>
        <mxCell id="ZL4C4n28PFtst3DvSVL6-83" style="edgeStyle=orthogonalEdgeStyle;rounded=0;orthogonalLoop=1;jettySize=auto;html=1;exitX=0;exitY=0.5;exitDx=0;exitDy=0;" edge="1" parent="1" source="ZL4C4n28PFtst3DvSVL6-22">
          <mxGeometry relative="1" as="geometry">
            <mxPoint x="200.00000000000023" y="410" as="targetPoint" />
            <Array as="points">
              <mxPoint x="320" y="180" />
              <mxPoint x="320" y="410" />
            </Array>
          </mxGeometry>
        </mxCell>
        <mxCell id="ZL4C4n28PFtst3DvSVL6-22" value="Idopont" style="whiteSpace=wrap;html=1;align=center;" vertex="1" parent="1">
          <mxGeometry x="440" y="160" width="80" height="40" as="geometry" />
        </mxCell>
        <mxCell id="ZL4C4n28PFtst3DvSVL6-23" value="" style="endArrow=none;html=1;rounded=0;entryX=0.5;entryY=1;entryDx=0;entryDy=0;exitX=0.5;exitY=0;exitDx=0;exitDy=0;" edge="1" parent="1" source="ZL4C4n28PFtst3DvSVL6-5" target="ZL4C4n28PFtst3DvSVL6-22">
          <mxGeometry relative="1" as="geometry">
            <mxPoint x="270" y="200" as="sourcePoint" />
            <mxPoint x="430" y="200" as="targetPoint" />
          </mxGeometry>
        </mxCell>
        <mxCell id="ZL4C4n28PFtst3DvSVL6-25" value="OrvosID" style="ellipse;whiteSpace=wrap;html=1;align=center;fontStyle=4;" vertex="1" parent="1">
          <mxGeometry x="660" y="320" width="80" height="40" as="geometry" />
        </mxCell>
        <mxCell id="ZL4C4n28PFtst3DvSVL6-26" value="Nev" style="ellipse;whiteSpace=wrap;html=1;align=center;" vertex="1" parent="1">
          <mxGeometry x="780" y="320" width="80" height="40" as="geometry" />
        </mxCell>
        <mxCell id="ZL4C4n28PFtst3DvSVL6-27" value="" style="endArrow=none;html=1;rounded=0;entryX=0.5;entryY=0;entryDx=0;entryDy=0;exitX=0.5;exitY=1;exitDx=0;exitDy=0;" edge="1" parent="1" source="ZL4C4n28PFtst3DvSVL6-26" target="rXqy0nmyM1romMUP6jEx-11">
          <mxGeometry relative="1" as="geometry">
            <mxPoint x="600" y="380" as="sourcePoint" />
            <mxPoint x="760" y="380" as="targetPoint" />
          </mxGeometry>
        </mxCell>
        <mxCell id="ZL4C4n28PFtst3DvSVL6-28" value="" style="endArrow=none;html=1;rounded=0;entryX=0.5;entryY=0;entryDx=0;entryDy=0;exitX=0.5;exitY=1;exitDx=0;exitDy=0;" edge="1" parent="1" source="ZL4C4n28PFtst3DvSVL6-25" target="rXqy0nmyM1romMUP6jEx-11">
          <mxGeometry relative="1" as="geometry">
            <mxPoint x="600" y="380" as="sourcePoint" />
            <mxPoint x="760" y="380" as="targetPoint" />
          </mxGeometry>
        </mxCell>
        <mxCell id="ZL4C4n28PFtst3DvSVL6-29" value="Szakterulet" style="ellipse;whiteSpace=wrap;html=1;align=center;" vertex="1" parent="1">
          <mxGeometry x="860" y="360" width="80" height="40" as="geometry" />
        </mxCell>
        <mxCell id="ZL4C4n28PFtst3DvSVL6-30" value="Telszam" style="ellipse;whiteSpace=wrap;html=1;align=center;" vertex="1" parent="1">
          <mxGeometry x="860" y="440" width="80" height="40" as="geometry" />
        </mxCell>
        <mxCell id="ZL4C4n28PFtst3DvSVL6-31" value="" style="endArrow=none;html=1;rounded=0;exitX=1;exitY=0.5;exitDx=0;exitDy=0;entryX=0;entryY=0.5;entryDx=0;entryDy=0;" edge="1" parent="1" source="rXqy0nmyM1romMUP6jEx-11" target="ZL4C4n28PFtst3DvSVL6-29">
          <mxGeometry relative="1" as="geometry">
            <mxPoint x="790" y="380" as="sourcePoint" />
            <mxPoint x="950" y="380" as="targetPoint" />
          </mxGeometry>
        </mxCell>
        <mxCell id="ZL4C4n28PFtst3DvSVL6-32" value="" style="endArrow=none;html=1;rounded=0;exitX=1;exitY=0.5;exitDx=0;exitDy=0;entryX=0;entryY=0.5;entryDx=0;entryDy=0;" edge="1" parent="1" source="rXqy0nmyM1romMUP6jEx-11" target="ZL4C4n28PFtst3DvSVL6-30">
          <mxGeometry relative="1" as="geometry">
            <mxPoint x="810" y="430" as="sourcePoint" />
            <mxPoint x="870" y="390" as="targetPoint" />
          </mxGeometry>
        </mxCell>
        <mxCell id="ZL4C4n28PFtst3DvSVL6-33" value="Beosztas" style="ellipse;whiteSpace=wrap;html=1;align=center;dashed=1;" vertex="1" parent="1">
          <mxGeometry x="720" y="480" width="80" height="40" as="geometry" />
        </mxCell>
        <mxCell id="ZL4C4n28PFtst3DvSVL6-35" value="" style="endArrow=none;html=1;rounded=0;entryX=0.5;entryY=1;entryDx=0;entryDy=0;" edge="1" parent="1" source="ZL4C4n28PFtst3DvSVL6-33" target="rXqy0nmyM1romMUP6jEx-11">
          <mxGeometry relative="1" as="geometry">
            <mxPoint x="760" y="510" as="sourcePoint" />
            <mxPoint x="920" y="510" as="targetPoint" />
          </mxGeometry>
        </mxCell>
        <mxCell id="ZL4C4n28PFtst3DvSVL6-36" value="Kezdes" style="ellipse;whiteSpace=wrap;html=1;align=center;" vertex="1" parent="1">
          <mxGeometry x="720" y="560" width="80" height="40" as="geometry" />
        </mxCell>
        <mxCell id="ZL4C4n28PFtst3DvSVL6-37" value="Veg" style="ellipse;whiteSpace=wrap;html=1;align=center;" vertex="1" parent="1">
          <mxGeometry x="820" y="560" width="80" height="40" as="geometry" />
        </mxCell>
        <mxCell id="ZL4C4n28PFtst3DvSVL6-38" value="Munkanap" style="ellipse;whiteSpace=wrap;html=1;align=center;" vertex="1" parent="1">
          <mxGeometry x="620" y="560" width="80" height="40" as="geometry" />
        </mxCell>
        <mxCell id="ZL4C4n28PFtst3DvSVL6-39" value="" style="endArrow=none;html=1;rounded=0;exitX=0.5;exitY=0;exitDx=0;exitDy=0;entryX=0.5;entryY=1;entryDx=0;entryDy=0;" edge="1" parent="1" source="ZL4C4n28PFtst3DvSVL6-37" target="ZL4C4n28PFtst3DvSVL6-33">
          <mxGeometry relative="1" as="geometry">
            <mxPoint x="760" y="510" as="sourcePoint" />
            <mxPoint x="920" y="510" as="targetPoint" />
          </mxGeometry>
        </mxCell>
        <mxCell id="ZL4C4n28PFtst3DvSVL6-40" value="" style="endArrow=none;html=1;rounded=0;entryX=0.5;entryY=0;entryDx=0;entryDy=0;exitX=0.5;exitY=1;exitDx=0;exitDy=0;" edge="1" parent="1" source="ZL4C4n28PFtst3DvSVL6-33" target="ZL4C4n28PFtst3DvSVL6-36">
          <mxGeometry relative="1" as="geometry">
            <mxPoint x="760" y="510" as="sourcePoint" />
            <mxPoint x="920" y="510" as="targetPoint" />
          </mxGeometry>
        </mxCell>
        <mxCell id="ZL4C4n28PFtst3DvSVL6-41" value="" style="endArrow=none;html=1;rounded=0;exitX=0.5;exitY=0;exitDx=0;exitDy=0;entryX=0.5;entryY=1;entryDx=0;entryDy=0;" edge="1" parent="1" source="ZL4C4n28PFtst3DvSVL6-38" target="ZL4C4n28PFtst3DvSVL6-33">
          <mxGeometry relative="1" as="geometry">
            <mxPoint x="760" y="510" as="sourcePoint" />
            <mxPoint x="920" y="510" as="targetPoint" />
          </mxGeometry>
        </mxCell>
        <mxCell id="ZL4C4n28PFtst3DvSVL6-42" value="Hazszam" style="ellipse;whiteSpace=wrap;html=1;align=center;" vertex="1" parent="1">
          <mxGeometry x="-140" y="420" width="80" height="40" as="geometry" />
        </mxCell>
        <mxCell id="ZL4C4n28PFtst3DvSVL6-43" value="Irszam" style="ellipse;whiteSpace=wrap;html=1;align=center;" vertex="1" parent="1">
          <mxGeometry x="-140" y="290" width="80" height="40" as="geometry" />
        </mxCell>
        <mxCell id="ZL4C4n28PFtst3DvSVL6-44" value="Utca" style="ellipse;whiteSpace=wrap;html=1;align=center;" vertex="1" parent="1">
          <mxGeometry x="-140" y="360" width="80" height="40" as="geometry" />
        </mxCell>
        <mxCell id="ZL4C4n28PFtst3DvSVL6-45" value="" style="endArrow=none;html=1;rounded=0;exitX=0;exitY=0.5;exitDx=0;exitDy=0;entryX=1;entryY=0.5;entryDx=0;entryDy=0;" edge="1" parent="1" source="rXqy0nmyM1romMUP6jEx-9" target="ZL4C4n28PFtst3DvSVL6-44">
          <mxGeometry relative="1" as="geometry">
            <mxPoint x="40" y="360" as="sourcePoint" />
            <mxPoint x="200" y="360" as="targetPoint" />
          </mxGeometry>
        </mxCell>
        <mxCell id="ZL4C4n28PFtst3DvSVL6-46" value="" style="endArrow=none;html=1;rounded=0;exitX=1;exitY=0.5;exitDx=0;exitDy=0;entryX=0;entryY=0.5;entryDx=0;entryDy=0;" edge="1" parent="1" source="ZL4C4n28PFtst3DvSVL6-43" target="rXqy0nmyM1romMUP6jEx-9">
          <mxGeometry relative="1" as="geometry">
            <mxPoint x="-10" y="390" as="sourcePoint" />
            <mxPoint x="-50" y="390" as="targetPoint" />
          </mxGeometry>
        </mxCell>
        <mxCell id="ZL4C4n28PFtst3DvSVL6-47" value="" style="endArrow=none;html=1;rounded=0;exitX=0;exitY=0.5;exitDx=0;exitDy=0;entryX=1;entryY=0.5;entryDx=0;entryDy=0;" edge="1" parent="1" source="rXqy0nmyM1romMUP6jEx-9" target="ZL4C4n28PFtst3DvSVL6-42">
          <mxGeometry relative="1" as="geometry">
            <mxPoint y="400" as="sourcePoint" />
            <mxPoint x="-40" y="400" as="targetPoint" />
          </mxGeometry>
        </mxCell>
        <mxCell id="ZL4C4n28PFtst3DvSVL6-48" value="Kezeles" style="whiteSpace=wrap;html=1;align=center;" vertex="1" parent="1">
          <mxGeometry x="440" y="640" width="80" height="40" as="geometry" />
        </mxCell>
        <mxCell id="ZL4C4n28PFtst3DvSVL6-49" value="KezelesID" style="ellipse;whiteSpace=wrap;html=1;align=center;fontStyle=4;" vertex="1" parent="1">
          <mxGeometry x="380" y="560" width="80" height="40" as="geometry" />
        </mxCell>
        <mxCell id="ZL4C4n28PFtst3DvSVL6-50" value="&lt;span style=&quot;border-bottom: 1px dotted&quot;&gt;IdopontFK&lt;/span&gt;" style="ellipse;whiteSpace=wrap;html=1;align=center;" vertex="1" parent="1">
          <mxGeometry x="500" y="560" width="80" height="40" as="geometry" />
        </mxCell>
        <mxCell id="ZL4C4n28PFtst3DvSVL6-51" value="" style="endArrow=none;html=1;rounded=0;entryX=0.5;entryY=0;entryDx=0;entryDy=0;exitX=0.5;exitY=1;exitDx=0;exitDy=0;" edge="1" parent="1" source="ZL4C4n28PFtst3DvSVL6-49" target="ZL4C4n28PFtst3DvSVL6-48">
          <mxGeometry relative="1" as="geometry">
            <mxPoint x="490" y="540" as="sourcePoint" />
            <mxPoint x="650" y="540" as="targetPoint" />
          </mxGeometry>
        </mxCell>
        <mxCell id="ZL4C4n28PFtst3DvSVL6-52" value="" style="endArrow=none;html=1;rounded=0;entryX=0.5;entryY=0;entryDx=0;entryDy=0;exitX=0.5;exitY=1;exitDx=0;exitDy=0;" edge="1" parent="1" source="ZL4C4n28PFtst3DvSVL6-50" target="ZL4C4n28PFtst3DvSVL6-48">
          <mxGeometry relative="1" as="geometry">
            <mxPoint x="430" y="610" as="sourcePoint" />
            <mxPoint x="490" y="650" as="targetPoint" />
          </mxGeometry>
        </mxCell>
        <mxCell id="ZL4C4n28PFtst3DvSVL6-53" value="Tipus" style="ellipse;whiteSpace=wrap;html=1;align=center;" vertex="1" parent="1">
          <mxGeometry x="540" y="720" width="80" height="40" as="geometry" />
        </mxCell>
        <mxCell id="ZL4C4n28PFtst3DvSVL6-54" value="Koltseg" style="ellipse;whiteSpace=wrap;html=1;align=center;" vertex="1" parent="1">
          <mxGeometry x="340" y="720" width="80" height="40" as="geometry" />
        </mxCell>
        <mxCell id="ZL4C4n28PFtst3DvSVL6-56" value="Leiras" style="ellipse;whiteSpace=wrap;html=1;align=center;" vertex="1" parent="1">
          <mxGeometry x="440" y="720" width="80" height="40" as="geometry" />
        </mxCell>
        <mxCell id="ZL4C4n28PFtst3DvSVL6-89" style="edgeStyle=orthogonalEdgeStyle;rounded=0;orthogonalLoop=1;jettySize=auto;html=1;exitX=0;exitY=0.75;exitDx=0;exitDy=0;" edge="1" parent="1" source="ZL4C4n28PFtst3DvSVL6-59">
          <mxGeometry relative="1" as="geometry">
            <mxPoint x="200" y="430.52631578947376" as="targetPoint" />
          </mxGeometry>
        </mxCell>
        <mxCell id="ZL4C4n28PFtst3DvSVL6-59" value="Recept" style="whiteSpace=wrap;html=1;align=center;" vertex="1" parent="1">
          <mxGeometry x="440" y="400" width="80" height="40" as="geometry" />
        </mxCell>
        <mxCell id="ZL4C4n28PFtst3DvSVL6-60" value="ReceptID" style="ellipse;whiteSpace=wrap;html=1;align=center;fontStyle=4;" vertex="1" parent="1">
          <mxGeometry x="340" y="320" width="80" height="40" as="geometry" />
        </mxCell>
        <mxCell id="ZL4C4n28PFtst3DvSVL6-61" value="&lt;span style=&quot;border-bottom: 1px dotted&quot;&gt;OrvosFK&lt;/span&gt;" style="ellipse;whiteSpace=wrap;html=1;align=center;" vertex="1" parent="1">
          <mxGeometry x="540" y="320" width="80" height="40" as="geometry" />
        </mxCell>
        <mxCell id="ZL4C4n28PFtst3DvSVL6-62" value="&lt;span style=&quot;border-bottom: 1px dotted&quot;&gt;PaciensFK&lt;/span&gt;" style="ellipse;whiteSpace=wrap;html=1;align=center;" vertex="1" parent="1">
          <mxGeometry x="440" y="320" width="80" height="40" as="geometry" />
        </mxCell>
        <mxCell id="ZL4C4n28PFtst3DvSVL6-63" value="" style="endArrow=none;html=1;rounded=0;entryX=0.5;entryY=1;entryDx=0;entryDy=0;exitX=0.5;exitY=0;exitDx=0;exitDy=0;" edge="1" parent="1" source="ZL4C4n28PFtst3DvSVL6-59" target="ZL4C4n28PFtst3DvSVL6-61">
          <mxGeometry relative="1" as="geometry">
            <mxPoint x="490" y="440" as="sourcePoint" />
            <mxPoint x="650" y="440" as="targetPoint" />
          </mxGeometry>
        </mxCell>
        <mxCell id="ZL4C4n28PFtst3DvSVL6-64" value="" style="endArrow=none;html=1;rounded=0;entryX=0.5;entryY=1;entryDx=0;entryDy=0;exitX=0.5;exitY=0;exitDx=0;exitDy=0;" edge="1" parent="1" source="ZL4C4n28PFtst3DvSVL6-59" target="ZL4C4n28PFtst3DvSVL6-62">
          <mxGeometry relative="1" as="geometry">
            <mxPoint x="490" y="410" as="sourcePoint" />
            <mxPoint x="590" y="370" as="targetPoint" />
          </mxGeometry>
        </mxCell>
        <mxCell id="ZL4C4n28PFtst3DvSVL6-65" value="" style="endArrow=none;html=1;rounded=0;entryX=0.5;entryY=1;entryDx=0;entryDy=0;exitX=0.5;exitY=0;exitDx=0;exitDy=0;" edge="1" parent="1" source="ZL4C4n28PFtst3DvSVL6-59" target="ZL4C4n28PFtst3DvSVL6-60">
          <mxGeometry relative="1" as="geometry">
            <mxPoint x="500" y="420" as="sourcePoint" />
            <mxPoint x="600" y="380" as="targetPoint" />
          </mxGeometry>
        </mxCell>
        <mxCell id="ZL4C4n28PFtst3DvSVL6-66" value="" style="endArrow=none;html=1;rounded=0;entryX=0.5;entryY=1;entryDx=0;entryDy=0;exitX=0.5;exitY=0;exitDx=0;exitDy=0;" edge="1" parent="1" source="ZL4C4n28PFtst3DvSVL6-72" target="ZL4C4n28PFtst3DvSVL6-59">
          <mxGeometry relative="1" as="geometry">
            <mxPoint x="590" y="450" as="sourcePoint" />
            <mxPoint x="730" y="419.41" as="targetPoint" />
          </mxGeometry>
        </mxCell>
        <mxCell id="ZL4C4n28PFtst3DvSVL6-67" value="KiallDatum" style="ellipse;whiteSpace=wrap;html=1;align=center;" vertex="1" parent="1">
          <mxGeometry x="340" y="480" width="80" height="40" as="geometry" />
        </mxCell>
        <mxCell id="ZL4C4n28PFtst3DvSVL6-69" value="LejarDatum" style="ellipse;whiteSpace=wrap;html=1;align=center;" vertex="1" parent="1">
          <mxGeometry x="440" y="480" width="80" height="40" as="geometry" />
        </mxCell>
        <mxCell id="ZL4C4n28PFtst3DvSVL6-70" value="" style="endArrow=none;html=1;rounded=0;exitX=0.5;exitY=1;exitDx=0;exitDy=0;entryX=0.5;entryY=0;entryDx=0;entryDy=0;" edge="1" parent="1" source="ZL4C4n28PFtst3DvSVL6-59" target="ZL4C4n28PFtst3DvSVL6-69">
          <mxGeometry relative="1" as="geometry">
            <mxPoint x="590" y="490" as="sourcePoint" />
            <mxPoint x="490" y="450" as="targetPoint" />
          </mxGeometry>
        </mxCell>
        <mxCell id="ZL4C4n28PFtst3DvSVL6-71" value="" style="endArrow=none;html=1;rounded=0;exitX=0.5;exitY=1;exitDx=0;exitDy=0;entryX=0.5;entryY=0;entryDx=0;entryDy=0;" edge="1" parent="1" source="ZL4C4n28PFtst3DvSVL6-59" target="ZL4C4n28PFtst3DvSVL6-67">
          <mxGeometry relative="1" as="geometry">
            <mxPoint x="600" y="500" as="sourcePoint" />
            <mxPoint x="500" y="460" as="targetPoint" />
          </mxGeometry>
        </mxCell>
        <mxCell id="ZL4C4n28PFtst3DvSVL6-72" value="Gyogyszerek" style="ellipse;shape=doubleEllipse;margin=3;whiteSpace=wrap;html=1;align=center;" vertex="1" parent="1">
          <mxGeometry x="540" y="480" width="80" height="40" as="geometry" />
        </mxCell>
        <mxCell id="ZL4C4n28PFtst3DvSVL6-74" value="" style="endArrow=none;html=1;rounded=0;exitX=0.5;exitY=0;exitDx=0;exitDy=0;entryX=0.5;entryY=1;entryDx=0;entryDy=0;" edge="1" parent="1" source="ZL4C4n28PFtst3DvSVL6-54" target="ZL4C4n28PFtst3DvSVL6-48">
          <mxGeometry relative="1" as="geometry">
            <mxPoint x="600" y="670" as="sourcePoint" />
            <mxPoint x="760" y="670" as="targetPoint" />
          </mxGeometry>
        </mxCell>
        <mxCell id="ZL4C4n28PFtst3DvSVL6-75" value="" style="endArrow=none;html=1;rounded=0;exitX=0.5;exitY=0;exitDx=0;exitDy=0;entryX=0.5;entryY=1;entryDx=0;entryDy=0;" edge="1" parent="1" source="ZL4C4n28PFtst3DvSVL6-56" target="ZL4C4n28PFtst3DvSVL6-48">
          <mxGeometry relative="1" as="geometry">
            <mxPoint x="390" y="730" as="sourcePoint" />
            <mxPoint x="490" y="690" as="targetPoint" />
          </mxGeometry>
        </mxCell>
        <mxCell id="ZL4C4n28PFtst3DvSVL6-76" value="" style="endArrow=none;html=1;rounded=0;exitX=0.5;exitY=1;exitDx=0;exitDy=0;entryX=0.5;entryY=0;entryDx=0;entryDy=0;" edge="1" parent="1" source="ZL4C4n28PFtst3DvSVL6-48" target="ZL4C4n28PFtst3DvSVL6-53">
          <mxGeometry relative="1" as="geometry">
            <mxPoint x="400" y="740" as="sourcePoint" />
            <mxPoint x="500" y="700" as="targetPoint" />
          </mxGeometry>
        </mxCell>
        <mxCell id="ZL4C4n28PFtst3DvSVL6-91" value="" style="endArrow=classic;html=1;rounded=0;exitX=1;exitY=0.5;exitDx=0;exitDy=0;entryX=0;entryY=0.25;entryDx=0;entryDy=0;" edge="1" parent="1" source="rXqy0nmyM1romMUP6jEx-1" target="rXqy0nmyM1romMUP6jEx-11">
          <mxGeometry width="50" height="50" relative="1" as="geometry">
            <mxPoint x="430" y="500" as="sourcePoint" />
            <mxPoint x="480" y="450" as="targetPoint" />
            <Array as="points">
              <mxPoint x="330" y="420" />
              <mxPoint x="330" y="300" />
              <mxPoint x="640" y="300" />
              <mxPoint x="640" y="410" />
            </Array>
          </mxGeometry>
        </mxCell>
        <mxCell id="ZL4C4n28PFtst3DvSVL6-92" value="" style="endArrow=classic;html=1;rounded=0;exitX=1;exitY=0.5;exitDx=0;exitDy=0;" edge="1" parent="1">
          <mxGeometry width="50" height="50" relative="1" as="geometry">
            <mxPoint x="200" y="420" as="sourcePoint" />
            <mxPoint x="710" y="410" as="targetPoint" />
            <Array as="points">
              <mxPoint x="330" y="420" />
              <mxPoint x="330" y="300" />
              <mxPoint x="640" y="300" />
              <mxPoint x="640" y="410" />
            </Array>
          </mxGeometry>
        </mxCell>
        <mxCell id="ZL4C4n28PFtst3DvSVL6-93" value="" style="endArrow=classic;html=1;rounded=0;entryX=1;entryY=0.5;entryDx=0;entryDy=0;exitX=0;exitY=0.25;exitDx=0;exitDy=0;" edge="1" parent="1" source="rXqy0nmyM1romMUP6jEx-11" target="rXqy0nmyM1romMUP6jEx-1">
          <mxGeometry width="50" height="50" relative="1" as="geometry">
            <mxPoint x="430" y="500" as="sourcePoint" />
            <mxPoint x="480" y="450" as="targetPoint" />
            <Array as="points">
              <mxPoint x="640" y="410" />
              <mxPoint x="640" y="300" />
              <mxPoint x="330" y="300" />
              <mxPoint x="330" y="420" />
            </Array>
          </mxGeometry>
        </mxCell>
        <mxCell id="ZL4C4n28PFtst3DvSVL6-94" value="" style="endArrow=classic;html=1;rounded=0;exitX=0;exitY=0.25;exitDx=0;exitDy=0;" edge="1" parent="1" source="rXqy0nmyM1romMUP6jEx-11">
          <mxGeometry width="50" height="50" relative="1" as="geometry">
            <mxPoint x="720" y="420" as="sourcePoint" />
            <mxPoint x="210" y="420" as="targetPoint" />
            <Array as="points">
              <mxPoint x="640" y="410" />
              <mxPoint x="640" y="300" />
              <mxPoint x="330" y="300" />
              <mxPoint x="330" y="420" />
            </Array>
          </mxGeometry>
        </mxCell>
        <mxCell id="ZL4C4n28PFtst3DvSVL6-95" value="" style="endArrow=classic;startArrow=classic;html=1;rounded=0;exitX=1;exitY=0.5;exitDx=0;exitDy=0;entryX=1;entryY=0.5;entryDx=0;entryDy=0;" edge="1" parent="1" source="ZL4C4n28PFtst3DvSVL6-22" target="ZL4C4n28PFtst3DvSVL6-48">
          <mxGeometry width="50" height="50" relative="1" as="geometry">
            <mxPoint x="720" y="500" as="sourcePoint" />
            <mxPoint x="770" y="450" as="targetPoint" />
            <Array as="points">
              <mxPoint x="980" y="180" />
              <mxPoint x="980" y="660" />
            </Array>
          </mxGeometry>
        </mxCell>
        <mxCell id="ZL4C4n28PFtst3DvSVL6-96" value="" style="endArrow=classic;html=1;rounded=0;exitX=1;exitY=0.5;exitDx=0;exitDy=0;" edge="1" parent="1" source="ZL4C4n28PFtst3DvSVL6-22">
          <mxGeometry width="50" height="50" relative="1" as="geometry">
            <mxPoint x="540" y="210" as="sourcePoint" />
            <mxPoint x="530" y="660" as="targetPoint" />
            <Array as="points">
              <mxPoint x="980" y="180" />
              <mxPoint x="980" y="660" />
            </Array>
          </mxGeometry>
        </mxCell>
        <mxCell id="ZL4C4n28PFtst3DvSVL6-97" value="" style="endArrow=classic;startArrow=classic;html=1;rounded=0;exitX=1;exitY=0.75;exitDx=0;exitDy=0;entryX=0;entryY=0.75;entryDx=0;entryDy=0;" edge="1" parent="1" source="ZL4C4n28PFtst3DvSVL6-59" target="rXqy0nmyM1romMUP6jEx-11">
          <mxGeometry width="50" height="50" relative="1" as="geometry">
            <mxPoint x="660" y="490" as="sourcePoint" />
            <mxPoint x="710" y="440" as="targetPoint" />
          </mxGeometry>
        </mxCell>
        <mxCell id="ZL4C4n28PFtst3DvSVL6-98" value="" style="endArrow=classic;html=1;rounded=0;exitX=0;exitY=0.75;exitDx=0;exitDy=0;" edge="1" parent="1" source="rXqy0nmyM1romMUP6jEx-11">
          <mxGeometry width="50" height="50" relative="1" as="geometry">
            <mxPoint x="660" y="490" as="sourcePoint" />
            <mxPoint x="530" y="430" as="targetPoint" />
          </mxGeometry>
        </mxCell>
      </root>
    </mxGraphModel>
  </diagram>
</mxfile>
